<?xml version="1.0" standalone="no"?>
<!DOCTYPE svg PUBLIC "-//W3C//DTD SVG 20010904//EN"
 "http://www.w3.org/TR/2001/REC-SVG-20010904/DTD/svg10.dtd">
<svg version="1.0" xmlns="http://www.w3.org/2000/svg"
 width="256.000000pt" height="256.000000pt" viewBox="0 0 256.000000 256.000000"
 preserveAspectRatio="xMidYMid meet">
<metadata>
Created by potrace 1.11, written by Peter Selinger 2001-2013
</metadata>
<g transform="translate(0.000000,256.000000) scale(0.100000,-0.100000)"
fill="#000000" stroke="none">
<path d="M0 1280 l0 -1230 1280 0 1280 0 0 1230 0 1230 -1280 0 -1280 0 0
-1230z m1884 214 c19 -18 20 -28 6 -55 -20 -36 -80 -21 -80 20 0 48 42 68 74
35z m-991 -89 c-5 -34 -5 -35 26 -35 26 0 31 -4 31 -25 0 -22 -4 -25 -35 -25
l-34 0 -7 -62 c-8 -74 -9 -71 6 -76 6 -2 14 5 17 17 6 24 4 24 37 11 33 -12
33 -25 -3 -61 -23 -22 -39 -29 -70 -29 -64 0 -75 18 -68 117 5 69 4 83 -8 83
-9 0 -15 10 -15 25 0 18 5 25 19 25 20 0 31 18 31 51 0 15 7 19 39 19 l40 0
-6 -35z m777 0 c0 -32 2 -35 30 -35 25 0 30 -4 30 -25 0 -22 -4 -25 -34 -25
-38 0 -40 -3 -51 -82 -7 -52 6 -69 28 -38 12 18 18 19 40 9 25 -11 25 -13 11
-40 -8 -16 -23 -33 -33 -39 -33 -17 -89 -12 -112 11 -18 18 -20 28 -14 78 3
31 9 66 12 79 4 17 1 22 -15 22 -15 0 -18 5 -14 25 3 15 11 25 22 25 12 0 20
11 24 35 6 32 10 35 41 35 33 0 35 -2 35 -35z m-1198 -20 c-2 -11 -10 -27 -18
-36 -8 -8 -14 -34 -14 -57 0 -65 -30 -88 -124 -94 -22 -2 -41 -8 -43 -15 -4
-11 12 -16 93 -28 77 -12 105 -65 63 -118 -35 -45 -148 -60 -209 -27 -27 14
-28 84 -2 99 11 7 13 13 6 18 -21 16 -23 42 -4 65 14 18 17 33 13 69 -10 82
39 126 130 116 43 -6 50 -4 54 14 8 29 60 23 55 -6z m207 -19 c70 -37 68 -168
-4 -224 -33 -26 -102 -29 -145 -7 -69 36 -58 188 18 229 35 19 95 20 131 2z
m483 -3 c11 -9 18 -11 18 -5 0 7 14 12 30 12 35 0 36 -7 19 -110 -8 -54 -8
-66 4 -75 10 -7 13 -21 10 -38 -5 -23 -10 -27 -39 -27 -23 0 -38 6 -46 19 -12
19 -12 19 -36 0 -32 -25 -86 -25 -112 1 -24 24 -27 103 -6 153 30 72 114 110
158 70z m323 5 c22 -10 45 -52 34 -63 -2 -2 -21 -6 -41 -10 -32 -6 -38 -4 -38
10 0 25 -42 15 -57 -15 -17 -34 -16 -95 1 -109 16 -13 56 1 56 19 0 5 13 4 30
-1 33 -12 35 -17 17 -40 -20 -26 -53 -39 -102 -39 -66 0 -95 31 -95 100 0 118
97 193 195 148z m640 0 c22 -10 45 -52 34 -63 -2 -2 -21 -6 -41 -10 -32 -6
-38 -4 -38 10 0 25 -42 15 -57 -15 -17 -33 -16 -95 1 -109 16 -13 42 -6 50 14
4 11 11 12 36 4 33 -12 35 -17 17 -40 -20 -26 -53 -39 -102 -39 -66 0 -95 31
-95 102 0 33 7 67 18 87 32 60 115 88 177 59z m235 -1 c14 -7 26 -21 28 -31 7
-34 -46 -49 -74 -21 -8 8 -21 12 -29 9 -28 -11 -15 -33 29 -53 69 -30 86 -82
41 -126 -20 -21 -34 -25 -86 -25 -66 0 -99 17 -99 50 0 24 60 33 76 13 13 -18
49 -13 49 6 0 8 -20 27 -45 41 -53 31 -70 67 -51 104 7 13 23 29 35 34 29 15
96 14 126 -1z m-480 -13 c0 -8 -5 -47 -11 -86 -10 -64 -9 -73 6 -84 9 -7 15
-22 13 -36 -4 -31 -60 -38 -90 -11 -17 15 -19 26 -13 73 3 30 8 67 11 83 4 20
2 27 -10 27 -17 0 -20 9 -10 34 9 23 104 23 104 0z"/>
<path d="M310 1310 c-15 -28 -3 -60 21 -60 27 0 47 44 29 65 -17 21 -37 19
-50 -5z"/>
<path d="M261 1091 c-23 -43 66 -73 104 -35 22 23 4 40 -52 49 -35 6 -43 4
-52 -14z"/>
<path d="M574 1285 c-18 -45 -18 -80 2 -99 31 -31 74 17 74 83 0 59 -53 70
-76 16z"/>
<path d="M1086 1291 c-21 -39 -21 -107 -1 -115 19 -7 52 25 61 58 18 74 -28
119 -60 57z"/>
</g>
</svg>
